<svg width="179" height="129" viewBox="0 0 179 129" fill="none" xmlns="http://www.w3.org/2000/svg">
<path d="M20.2539 41.1824V23.138H23.9637V37.9134H32.3258V23.138H36.0353V37.9134H38.1729V45.3323H34.4635V41.1824H20.2539Z" fill="#555555"/>
<path d="M44.1972 40.4904L47.781 27.9159H54.0681V41.2449H50.7987V28.6703L47.2152 41.1819H40.9277V27.9159H44.1972V40.4904Z" fill="#555555"/>
<path d="M72.3664 29.6759C73.6869 30.9961 74.3157 32.6309 74.3157 34.5168C74.3157 36.4661 73.6869 38.038 72.3664 39.3581C71.0463 40.6787 69.4114 41.3701 67.3994 41.4331V46.337H63.9417V41.4331C61.9924 41.3701 60.2948 40.6787 58.9747 39.3581C57.6541 38.038 57.0254 36.4031 57.0254 34.5168C57.0254 32.5679 57.6541 30.9961 58.9747 29.6759C60.2948 28.3554 61.9297 27.664 63.9417 27.6009V22.0682H67.3994V27.6009C69.4114 27.664 71.0463 28.3554 72.3664 29.6759ZM60.6092 34.5168C60.6092 35.523 60.9236 36.4031 61.5523 37.0948C62.1811 37.7863 62.9355 38.1637 63.9417 38.2267V30.8074C62.9985 30.8704 62.1811 31.2478 61.5523 31.9392C60.9236 32.6936 60.6092 33.511 60.6092 34.5168ZM67.3994 30.8074V38.2267C68.3426 38.1637 69.16 37.7863 69.7888 37.0948C70.4175 36.4031 70.7319 35.523 70.7319 34.5168C70.7319 33.511 70.4175 32.6309 69.7888 31.9392C69.16 31.2478 68.3426 30.8704 67.3994 30.8074Z" fill="#555555"/>
<path d="M85.6375 27.6017C87.272 27.6017 88.6552 28.2935 89.7244 29.6137C90.7932 30.9342 91.3589 32.5687 91.3589 34.5176C91.3589 36.4669 90.7932 38.1014 89.7244 39.422C88.6552 40.7421 87.272 41.4339 85.6375 41.4339C84.443 41.4339 83.4369 41.0565 82.6194 40.3651C81.7393 39.6107 81.1736 38.6675 80.7335 37.41V46.4009H77.2754V27.9161H80.7335V31.7513C81.1106 30.4938 81.7393 29.488 82.6194 28.7962C83.4369 27.9791 84.443 27.6017 85.6375 27.6017ZM84.38 38.2901C85.3231 38.2901 86.1406 37.9131 86.7693 37.2213C87.3981 36.5296 87.7751 35.6495 87.7751 34.5807C87.7751 33.5119 87.4607 32.6317 86.7693 31.94C86.0776 31.2486 85.3231 30.8712 84.38 30.8712C83.3112 30.8712 82.4937 31.2486 81.8023 31.94C81.1106 32.6317 80.7962 33.5119 80.7962 34.5807C80.7962 35.6495 81.1106 36.5296 81.8023 37.2213C82.4311 37.9131 83.3112 38.2901 84.38 38.2901Z" fill="#555555"/>
<path d="M95.6975 39.4843C94.3143 38.1641 93.6855 36.5292 93.6855 34.5803C93.6855 32.6314 94.3773 30.9965 95.6975 29.6763C97.0807 28.3558 98.7782 27.6644 100.79 27.6644C102.802 27.6644 104.5 28.3558 105.883 29.6763C107.266 30.9965 107.895 32.6314 107.895 34.5803C107.895 36.5292 107.203 38.1641 105.883 39.4843C104.5 40.8048 102.802 41.4962 100.79 41.4962C98.7782 41.4962 97.0807 40.8048 95.6975 39.4843ZM97.2694 34.5173C97.2694 35.5865 97.5837 36.4666 98.2751 37.158C98.9669 37.8498 99.7844 38.2271 100.79 38.2271C101.796 38.2271 102.613 37.8498 103.305 37.158C103.997 36.4666 104.311 35.5865 104.311 34.5173C104.311 33.4485 103.997 32.5684 103.305 31.8766C102.613 31.1852 101.796 30.8078 100.79 30.8078C99.7844 30.8078 98.9669 31.1852 98.2751 31.8766C97.6467 32.6314 97.2694 33.5115 97.2694 34.5173Z" fill="#555555"/>
<path d="M119.715 34.5174C120.784 34.6434 121.601 35.0204 122.167 35.5865C122.733 36.1522 123.047 36.9067 123.047 37.7868C123.047 38.7929 122.607 39.6104 121.79 40.2391C120.972 40.8678 119.904 41.1819 118.52 41.1819H110.787V27.9159H117.892C119.212 27.9159 120.344 28.2302 121.161 28.859C121.979 29.4877 122.419 30.3052 122.419 31.311C122.419 32.0654 122.167 32.7571 121.727 33.3229C121.224 33.889 120.595 34.266 119.715 34.5174ZM117.703 30.7452H114.057V33.1342H117.703C118.08 33.1342 118.395 33.0085 118.646 32.8198C118.898 32.5685 119.024 32.3171 119.024 31.9397C119.024 31.6253 118.898 31.311 118.646 31.1223C118.395 30.9339 118.143 30.7452 117.703 30.7452ZM114.119 38.3529H118.395C118.772 38.3529 119.086 38.2272 119.338 38.0385C119.589 37.7868 119.715 37.5354 119.715 37.158C119.715 36.8437 119.589 36.5293 119.338 36.3409C119.086 36.1522 118.772 36.0266 118.395 36.0266H114.119V38.3529Z" fill="#555555"/>
<path d="M127.196 39.4854C125.812 38.1652 125.184 36.5304 125.184 34.5814C125.184 32.6325 125.875 30.9976 127.196 29.6775C128.579 28.357 130.276 27.6656 132.288 27.6656C134.3 27.6656 135.998 28.357 137.381 29.6775C138.764 30.9976 139.393 32.6325 139.393 34.5814C139.393 36.5304 138.701 38.1652 137.381 39.4854C135.998 40.8059 134.3 41.4973 132.288 41.4973C130.214 41.4346 128.516 40.8059 127.196 39.4854ZM128.767 34.5184C128.767 35.5876 129.082 36.4677 129.773 37.1591C130.465 37.8509 131.282 38.2282 132.288 38.2282C133.294 38.2282 134.111 37.8509 134.803 37.1591C135.495 36.4677 135.809 35.5876 135.809 34.5184C135.809 33.4496 135.495 32.5695 134.803 31.8777C134.111 31.1863 133.294 30.8089 132.288 30.8089C131.282 30.8089 130.465 31.1863 129.773 31.8777C129.082 32.6325 128.767 33.5126 128.767 34.5184Z" fill="#555555"/>
<path d="M145.555 40.4906L149.138 27.8529H155.426V41.182H152.156V28.6703L148.572 41.182H142.285V27.9159H145.555V40.4906ZM148.887 26.4697C147.629 26.4697 146.623 26.0926 145.806 25.3382C145.052 24.5838 144.611 23.5146 144.611 22.1944H147.378C147.378 23.4519 147.881 24.0807 148.824 24.0807C149.83 24.0807 150.333 23.4519 150.333 22.1944H153.099C153.099 23.5146 152.722 24.5838 151.905 25.3382C151.15 26.0926 150.144 26.4697 148.887 26.4697Z" fill="#555555"/>
<path d="M20.3105 70.167V56.8378H33.0739V70.167H29.6158V59.9186H23.8313V70.167H20.3105Z" fill="#555555"/>
<path d="M44.8289 56.5854C46.4634 56.5854 47.847 57.2772 48.9158 58.5973C49.9846 59.9179 50.5503 61.5524 50.5503 63.5017C50.5503 65.4506 49.9846 67.0851 48.9158 68.4057C47.847 69.7258 46.4634 70.4176 44.8289 70.4176C43.6344 70.4176 42.6283 70.0402 41.8108 69.3488C40.9307 68.5944 40.365 67.6512 39.9249 66.3937V75.3846H36.4668V56.8371H39.9249V60.6723C40.302 59.4148 40.9307 58.4086 41.8108 57.7172C42.6283 56.9628 43.6344 56.5854 44.8289 56.5854ZM43.5714 67.2738C44.5145 67.2738 45.332 66.8968 45.9607 66.205C46.5895 65.5136 46.9665 64.6332 46.9665 63.5643C46.9665 62.4955 46.6521 61.6154 45.9607 60.9237C45.332 60.2322 44.5145 59.8548 43.5714 59.8548C42.5026 59.8548 41.6851 60.2322 40.9937 60.9237C40.302 61.6154 39.9876 62.4955 39.9876 63.5643C39.9876 64.6332 40.302 65.5136 40.9937 66.205C41.6225 66.8968 42.5026 67.2738 43.5714 67.2738Z" fill="#555555"/>
<path d="M54.9514 68.4692C53.5682 67.1487 52.9395 65.5141 52.9395 63.5649C52.9395 61.616 53.6309 59.9811 54.9514 58.6609C56.3346 57.3404 58.0321 56.649 60.044 56.649C62.056 56.649 63.7535 57.3404 65.1367 58.6609C66.5199 59.9811 67.1486 61.616 67.1486 63.5649C67.1486 65.5141 66.4572 67.1487 65.1367 68.4692C63.7535 69.7894 62.056 70.4811 60.044 70.4811C58.0321 70.4811 56.2715 69.7894 54.9514 68.4692ZM56.5233 63.5022C56.5233 64.571 56.8376 65.4511 57.529 66.1429C58.2208 66.8343 59.0379 67.2117 60.044 67.2117C61.0498 67.2117 61.8673 66.8343 62.5591 66.1429C63.2505 65.4511 63.5648 64.571 63.5648 63.5022C63.5648 62.4331 63.2505 61.5529 62.5591 60.8615C61.8673 60.1698 61.0498 59.7927 60.044 59.7927C59.0379 59.7927 58.2208 60.1698 57.529 60.8615C56.8376 61.616 56.5233 62.4961 56.5233 63.5022Z" fill="#555555"/>
<path d="M78.4054 56.5865C80.04 56.5865 81.4232 57.2783 82.492 58.5985C83.5608 59.919 84.1269 61.5535 84.1269 63.5028C84.1269 65.4517 83.5608 67.0863 82.492 68.4068C81.4232 69.7269 80.04 70.4187 78.4054 70.4187C77.2106 70.4187 76.2048 70.0413 75.3874 69.3499C74.5072 68.5955 73.9412 67.6523 73.5011 66.3948V75.3857H70.043V56.8383H73.5011V60.6734C73.8785 59.4159 74.5072 58.4098 75.3874 57.7184C76.2675 56.9639 77.2736 56.5865 78.4054 56.5865ZM77.1479 67.2749C78.091 67.2749 78.9082 66.8979 79.5369 66.2061C80.1657 65.5147 80.543 64.6343 80.543 63.5655C80.543 62.4967 80.2287 61.6165 79.5369 60.9248C78.9082 60.2334 78.091 59.856 77.1479 59.856C76.0791 59.856 75.2617 60.2334 74.5699 60.9248C73.8785 61.6165 73.5641 62.4967 73.5641 63.5655C73.5641 64.6343 73.8785 65.5147 74.5699 66.2061C75.2617 66.8979 76.0791 67.2749 77.1479 67.2749Z" fill="#555555"/>
<path d="M93.686 70.1669H87.0215V56.8378H90.4796V60.61H93.623C95.1949 60.61 96.4524 61.05 97.3955 61.9305C98.3386 62.8106 98.8417 63.9424 98.8417 65.3883C98.8417 66.8345 98.3386 67.9663 97.3955 68.8464C96.5781 69.7265 95.3209 70.1669 93.686 70.1669ZM90.5423 63.6907V67.0858H93.3086C93.9374 67.0858 94.4405 66.8975 94.8178 66.5831C95.1949 66.2687 95.3836 65.8287 95.3836 65.3883C95.3836 64.9482 95.1949 64.5082 94.8178 64.1938C94.4405 63.8794 93.9374 63.6907 93.3086 63.6907H90.5423ZM103.557 70.1669H100.099V56.8378H103.557V70.1669Z" fill="#555555"/>
<path d="M115.881 63.4394C116.95 63.5651 117.767 63.9425 118.333 64.5082C118.899 65.0739 119.213 65.8287 119.213 66.7088C119.213 67.7146 118.773 68.5321 117.956 69.1608C117.138 69.7896 116.07 70.104 114.686 70.104H106.953V56.8378H114.058C115.378 56.8378 116.51 57.1522 117.327 57.7806C118.144 58.4094 118.585 59.2268 118.585 60.233C118.585 60.9874 118.333 61.6788 117.893 62.2449C117.39 62.8736 116.698 63.2507 115.881 63.4394ZM113.869 59.7299H110.222V62.1192H113.869C114.246 62.1192 114.56 61.9932 114.812 61.8048C115.064 61.5531 115.189 61.3018 115.189 60.9244C115.189 60.61 115.064 60.2956 114.812 60.1069C114.623 59.8556 114.309 59.7299 113.869 59.7299ZM110.285 67.2746H114.56C114.938 67.2746 115.252 67.1489 115.504 66.9602C115.755 66.7088 115.881 66.4575 115.881 66.0801C115.881 65.7657 115.755 65.4513 115.504 65.2626C115.252 65.0739 114.938 64.9483 114.56 64.9483H110.285V67.2746Z" fill="#555555"/>
<path d="M170.827 128.136H66.3311C61.8045 128.136 58.1577 124.489 58.1577 119.962V98.5851C58.1577 96.1331 56.2088 94.1842 53.7564 94.1842H8.17341C3.64647 94.1842 0 90.5374 0 86.0104V8.17341C0 3.64648 3.64647 0 8.17341 0H170.827C175.354 0 179 3.64648 179 8.17341V119.962C179 124.489 175.354 128.136 170.827 128.136ZM8.17341 3.7725C5.72142 3.7725 3.7725 5.72142 3.7725 8.17341V86.0104C3.7725 88.4628 5.72142 90.4117 8.17341 90.4117H53.7564C58.2834 90.4117 61.9302 94.0585 61.9302 98.5851V119.962C61.9302 122.414 63.8791 124.363 66.3311 124.363H170.827C173.279 124.363 175.227 122.414 175.227 119.962V8.17341C175.227 5.72142 173.279 3.7725 170.827 3.7725H8.17341Z" fill="#555555"/>
<path d="M150.206 77.2089H146.748L152.406 63.9429H155.55L161.209 77.2089H157.814L153.978 68.0924L150.206 77.2089Z" fill="#555555"/>
<path d="M155.927 93.3675H96.1973V89.5949H152.154V68.0294H155.927V93.3675Z" fill="#555555"/>
</svg>
